<?xml version="1.0" encoding="utf-8"?>
<!-- Generator: Adobe Illustrator 17.1.0, SVG Export Plug-In . SVG Version: 6.00 Build 0)  -->
<!DOCTYPE svg PUBLIC "-//W3C//DTD SVG 1.1//EN" "http://www.w3.org/Graphics/SVG/1.1/DTD/svg11.dtd">
<svg version="1.1" id="Layer_1" xmlns="http://www.w3.org/2000/svg" xmlns:xlink="http://www.w3.org/1999/xlink" x="0px" y="0px"
	 viewBox="0 0 100 100" enable-background="new 0 0 100 100" xml:space="preserve">
<rect fill="#CCCCCC" width="100" height="100"/>
<g>
	<path fill="#FFFFFF" d="M40,57.8c1.3,0.7,4.3,1.9,7.2,1.9c3.8,0,5.7-1.8,5.7-4.2c0-3.1-3.1-4.5-6.3-4.5h-3v-5.2h2.8
		c2.4,0,5.6-1,5.6-3.6c0-1.9-1.5-3.3-4.6-3.3c-2.5,0-5.2,1.1-6.5,1.9l-1.5-5.3c1.9-1.2,5.6-2.4,9.6-2.4c6.7,0,10.4,3.5,10.4,7.8
		c0,3.3-1.9,5.9-5.7,7.2v0.1c3.7,0.7,6.8,3.5,6.8,7.6c0,5.5-4.8,9.6-12.8,9.6c-4,0-7.4-1.1-9.3-2.2L40,57.8z"/>
</g>
</svg>
